<svg width="13" height="13" viewBox="0 0 13 13" fill="none" xmlns="http://www.w3.org/2000/svg">
<path d="M6.5 12.5238H6.49125C4.87687 12.4938 0.21875 8.28501 0.21875 4.29876C0.21875 2.38376 1.79687 0.702515 3.59562 0.702515C5.02687 0.702515 5.98937 1.69001 6.49937 2.40876C7.00812 1.69126 7.97062 0.702515 9.4025 0.702515C11.2025 0.702515 12.78 2.38376 12.78 4.29939C12.78 8.28439 8.12125 12.4931 6.50687 12.5225H6.5V12.5238ZM3.59625 1.64064C2.29625 1.64064 1.15687 2.88314 1.15687 4.30001C1.15687 7.88751 5.55312 11.5475 6.50062 11.5863C7.44937 11.5475 11.8444 7.88814 11.8444 4.30001C11.8444 2.88314 10.705 1.64064 9.405 1.64064C7.825 1.64064 6.9425 3.47564 6.935 3.49376C6.79125 3.84501 6.2125 3.84501 6.06812 3.49376C6.05937 3.47501 5.1775 1.64064 3.59687 1.64064H3.59625Z" fill="#657786"/>
</svg>
